<?xml version="1.0" encoding="iso-8859-1"?>
<!-- Generator: Adobe Illustrator 25.0.0, SVG Export Plug-In . SVG Version: 6.00 Build 0)  -->
<svg version="1.1" baseProfile="basic" id="Layer_1"
	 xmlns="http://www.w3.org/2000/svg" xmlns:xlink="http://www.w3.org/1999/xlink" x="0px" y="0px" viewBox="0 0 64 64"
	 xml:space="preserve">
<path d="M44.453,31.246c0,9.416-8.825,9.317-8.825,9.317s1.125,1.26,1.125,3.038c0,1.036,0.031,3.857,0,5.066
	c-0.028,1.099,1.286,1.714,1.286,1.714S34.978,51.948,32,51.948s-6.039-1.568-6.039-1.568s1.313-0.615,1.286-1.714
	c-0.031-1.209,0-4.03,0-5.066c0-1.778,1.125-3.038,1.125-3.038s-8.825,0.099-8.825-9.317c0-3.633,1.899-5.524,1.899-5.524
	s-0.997-3.879,0.345-5.524c1.505-0.162,4.2,1.438,5.351,2.186c0,0,1.824-0.748,4.858-0.748c3.034,0,4.858,0.748,4.858,0.748
	c1.151-0.748,3.846-2.349,5.351-2.186c1.343,1.645,0.345,5.524,0.345,5.524S44.453,27.613,44.453,31.246z"/>
<path d="M28.176,45.94c0,0-2.323,0.352-3.154,0.352c-4.447,0-4.425-3.216-5.673-4.646c-0.592-0.678-1.489-0.933-1.489-1.299
	s0.312-0.686,0.952-0.686c0.972,0,2.014,0.688,2.522,1.509c0.516,0.832,1.922,2.629,3.772,2.629c1.189,0,2.858-0.704,2.858-0.704
	L28.176,45.94z"/>
<path d="M32,10c12.15,0,22,9.85,22,22s-9.85,22-22,22s-22-9.85-22-22S19.85,10,32,10z M32,50c9.941,0,18-8.059,18-18
	s-8.059-18-18-18s-18,8.059-18,18S22.059,50,32,50z"/>
</svg>